<svg xmlns="http://www.w3.org/2000/svg" width="900" height="420" viewBox="0 0 900 420">
<rect width="100%" height="100%" fill="white"/>
<line x1="48" y1="372" x2="852" y2="372" stroke="#222"/>
<line x1="48" y1="48" x2="48" y2="372" stroke="#222"/>
<polyline fill="none" stroke="#2563eb" stroke-width="2.5" points="48.00,48.00 55.88,180.11 63.92,261.42 71.96,305.13 80.01,332.92 88.05,345.53 96.09,354.93 104.13,360.15 112.17,364.71 120.21,367.08 128.26,368.36 136.30,369.29 144.34,369.97 152.38,370.32 160.42,370.72 168.46,370.95 176.50,371.11 184.55,371.26 192.59,371.36 200.63,371.44 208.67,371.52 216.71,371.60 224.75,371.63 232.80,371.67 240.84,371.72 248.88,371.75 256.92,371.77 264.96,371.79 273.00,371.80 281.05,371.84 289.09,371.85 297.13,371.87 305.17,371.87 313.21,371.89 321.25,371.89 329.30,371.91 337.34,371.92 345.38,371.92 353.42,371.93 361.46,371.92 369.50,371.94 377.55,371.96 385.59,371.95 393.63,371.96 401.67,371.96 409.71,371.96 417.75,371.97 425.79,371.96 433.84,371.97 441.88,371.97 449.92,371.98 457.96,371.99 466.00,371.97 474.04,371.98 482.09,371.98 490.13,371.97 498.17,371.97 506.21,371.99 514.25,371.99 522.29,371.99 530.34,371.99 538.38,371.99 546.42,371.98 554.46,372.00 562.50,371.98 570.54,371.98 578.59,371.98 586.63,371.98 594.67,371.98 602.71,371.98 610.75,371.98 618.79,371.98 626.83,371.99 634.88,371.99 642.92,372.00 650.96,372.00 659.00,371.98 667.04,371.98 675.08,371.98 683.13,371.98 691.17,371.99 699.21,371.99 707.25,372.00 715.29,371.97 723.33,372.00 731.38,371.99 739.42,371.98 747.46,371.98 755.50,371.98 763.54,371.99 771.58,371.98 779.63,371.98 787.67,371.99 795.71,371.98 803.75,371.97 811.79,371.98 819.83,371.98 827.88,371.99 835.92,371.97 843.96,371.98 852.00,371.96"/>
<text x="450.0" y="28" text-anchor="middle" font-family="sans-serif" font-size="18">Bundle Adjustment Loss</text>
<text x="450.0" y="410" text-anchor="middle" font-family="sans-serif" font-size="13">step</text>
<text x="14" y="210.0" text-anchor="middle" font-family="sans-serif" font-size="13" transform="rotate(-90 14 210.0)">MSE reprojection loss</text>
<text x="48" y="390" font-family="sans-serif" font-size="11">1</text>
<text x="852" y="390" text-anchor="end" font-family="sans-serif" font-size="11">5000</text>
<text x="40" y="52.0" text-anchor="end" font-family="sans-serif" font-size="11">4.76e+03</text>
<text x="40" y="376.0" text-anchor="end" font-family="sans-serif" font-size="11">0.753</text>
</svg>
